<!--+ Whatsapp -->
<svg width="30.000000" height="30.000000" viewBox="0 0 30 30" fill="none" xmlns="http://www.w3.org/2000/svg" xmlns:xlink="http://www.w3.org/1999/xlink">
<svg>
    <symbol id="whatsapp" viewBox="0 0 30 30">
        <svg width="30" height="30" viewBox="0 0 30 30" fill="none" xmlns="http://www.w3.org/2000/svg">
<g clip-path="url(#clip0_338_14923)">
<path d="M15 30C23.2843 30 30 23.2843 30 15C30 6.71573 23.2843 0 15 0C6.71573 0 0 6.71573 0 15C0 23.2843 6.71573 30 15 30Z" fill="#75B73B"/>
<path d="M14.5803 6.35425C10.0083 6.57175 6.40036 10.3794 6.41413 14.9565C6.41835 16.3505 6.75491 17.6664 7.3487 18.8292L6.43716 23.2539C6.38788 23.4933 6.60374 23.7029 6.84152 23.6465L11.1772 22.6194C12.2911 23.1743 13.5422 23.4947 14.8663 23.5149C19.5394 23.5863 23.4357 19.8759 23.5816 15.2046C23.7375 10.1973 19.6049 6.1149 14.5803 6.35425ZM19.7537 19.6837C18.484 20.9534 16.7957 21.6527 15 21.6527C13.9486 21.6527 12.9418 21.4167 12.0078 20.9515L11.4042 20.6507L8.74581 21.2804L9.30532 18.5643L9.00796 17.9817C8.52304 17.0321 8.27718 16.0054 8.27718 14.9299C8.27718 13.1341 8.9765 11.4459 10.2462 10.1761C11.5045 8.91767 13.2203 8.20716 15.0001 8.20716C16.7957 8.20716 18.484 8.90648 19.7536 10.1761C21.0233 11.4458 21.7226 13.1341 21.7226 14.9297C21.7227 16.7095 21.0121 18.4253 19.7537 19.6837Z" fill="white"/>
<path d="M19.1669 16.7919L17.5037 16.3144C17.2852 16.2518 17.0497 16.3138 16.8904 16.4761L16.4836 16.8904C16.3122 17.0652 16.052 17.1213 15.825 17.0295C15.0383 16.7111 13.3833 15.2396 12.9609 14.5037C12.8388 14.2914 12.859 14.0261 13.0088 13.8321L13.3637 13.3728C13.5028 13.1929 13.5321 12.9511 13.4402 12.7431L12.7405 11.1606C12.573 10.7816 12.0886 10.6712 11.7722 10.9389C11.308 11.3315 10.7573 11.928 10.6905 12.5889C10.5724 13.7542 11.0722 15.2229 12.9617 16.9867C15.1447 19.0244 16.893 19.2934 18.0314 19.0177C18.677 18.8615 19.193 18.2346 19.5184 17.7213C19.7406 17.3711 19.565 16.9063 19.1669 16.7919Z" fill="white"/>
</g>
<defs>
<clipPath id="clip0_338_14923">
<rect width="30" height="30" fill="white"/>
</clipPath>
</defs>
</svg>
    </symbol>
</svg>
<!-- +Telegram -->
<svg>
    <symbol id="telegram" viewBox="0 0 30 30">    
		<clipPath id="clip2_931">
			<rect id="telegram" width="30.000000" height="30.000000" fill="white" fill-opacity="0"/>
		</clipPath>	    
	    <g clip-path="url(#clip2_931)">
		        <path id="Vector" d="M15 0C6.71 0 0 6.71 0 15C0 23.28 6.71 30 15 30C23.28 30 30 23.28 30 15C30 6.71 23.28 0 15 0Z" fill="#40B3E0" fill-opacity="1.000000" fill-rule="nonzero"/>
		        <path id="Vector" d="M22.29 8.62L19.61 22.13C19.61 22.13 19.24 23.07 18.21 22.62L12.03 17.88L9.78 16.79L5.99 15.52C5.99 15.52 5.41 15.31 5.36 14.86C5.3 14.41 6.01 14.17 6.01 14.17L21.06 8.27C21.06 8.27 22.29 7.72 22.29 8.62Z" fill="#FFFFFF" fill-opacity="1.000000" fill-rule="nonzero"/>
		        <path id="Vector" d="M11.55 21.98C11.55 21.98 11.37 21.96 11.15 21.25C10.92 20.54 9.78 16.79 9.78 16.79L18.87 11.02C18.87 11.02 19.39 10.7 19.37 11.02C19.37 11.02 19.46 11.08 19.18 11.34C18.9 11.6 12.05 17.77 12.05 17.77L11.55 21.98Z" fill="#D2E5F1" fill-opacity="1.000000" fill-rule="nonzero"/>
		        <path id="Vector" d="M14.4 19.7L11.95 21.93C11.95 21.93 11.76 22.07 11.55 21.98L12.02 17.84L14.4 19.7Z" fill="#B5CFE4" fill-opacity="1.000000" fill-rule="nonzero"/>
	    </g>
    </symbol>
</svg>
<!-- +Viber -->
<svg>
    <symbol id="viber" viewBox="0 0 30 30">
        <svg width="30" height="30" viewBox="0 0 30 30" fill="none" xmlns="http://www.w3.org/2000/svg">
<g id="viber" clip-path="url(#clip0_338_14934)">
<path id="Vector" d="M15 30C23.2843 30 30 23.2843 30 15C30 6.71573 23.2843 0 15 0C6.71573 0 0 6.71573 0 15C0 23.2843 6.71573 30 15 30Z" fill="#6F3FAA"/>
<g id="Group">
<path id="Vector_2" d="M22.9352 10.5423L22.9303 10.5225C22.5295 8.90222 20.7226 7.16362 19.0632 6.80192L19.0445 6.79806C16.3606 6.28606 13.6392 6.28606 10.9558 6.79806L10.9365 6.80192C9.27776 7.16362 7.47078 8.90233 7.06948 10.5225L7.06502 10.5423C6.56955 12.805 6.56955 15.0998 7.06502 17.3625L7.06948 17.3823C7.45373 18.9334 9.12606 20.5922 10.7235 21.0483V22.857C10.7235 23.5117 11.5213 23.8332 11.9749 23.3608L13.8074 21.4559C14.2049 21.4781 14.6026 21.4906 15.0001 21.4906C16.3511 21.4906 17.7028 21.3628 19.0445 21.1068L19.0631 21.103C20.7225 20.7413 22.5294 19.0025 22.9302 17.3824L22.9351 17.3626C23.4306 15.0998 23.4306 12.8051 22.9352 10.5423ZM21.4849 17.0344C21.2173 18.0915 19.8454 19.4057 18.7554 19.6485C17.3283 19.9199 15.8899 20.0359 14.4529 19.9961C14.4243 19.9952 14.3969 20.0064 14.377 20.0269C14.173 20.2362 13.039 21.4004 13.039 21.4004L11.6159 22.8611C11.5118 22.9696 11.329 22.8957 11.329 22.746V19.7497C11.329 19.7002 11.2937 19.6582 11.245 19.6486C11.2447 19.6485 11.2445 19.6485 11.2442 19.6484C10.1541 19.4056 8.7827 18.0915 8.51463 17.0344C8.06867 14.9891 8.06867 12.9157 8.51463 10.8704C8.7827 9.81335 10.1541 8.49921 11.2442 8.2564C13.7366 7.78237 16.2636 7.78237 18.7554 8.2564C19.846 8.49921 21.2174 9.81335 21.485 10.8704C21.9314 12.9158 21.9314 14.9892 21.4849 17.0344Z" fill="white"/>
<path id="Vector_3" d="M17.3714 18.4176C17.2038 18.3667 17.0441 18.3325 16.8957 18.2711C15.3587 17.6334 13.9443 16.8107 12.8239 15.5497C12.1868 14.8327 11.6881 14.0231 11.2666 13.1663C11.0666 12.76 10.8982 12.3379 10.7264 11.9183C10.5699 11.5358 10.8005 11.1407 11.0433 10.8524C11.2712 10.5819 11.5645 10.3749 11.882 10.2223C12.1299 10.1032 12.3743 10.1719 12.5554 10.3819C12.9467 10.8362 13.3062 11.3136 13.5972 11.8401C13.7762 12.1639 13.7271 12.5598 13.4027 12.7802C13.3238 12.8337 13.252 12.8967 13.1785 12.9571C13.1141 13.0102 13.0535 13.0637 13.0093 13.1355C12.9286 13.2668 12.9248 13.4218 12.9767 13.5646C13.3767 14.6638 14.0509 15.5187 15.1575 15.9792C15.3345 16.0529 15.5123 16.1386 15.7163 16.1149C16.0579 16.075 16.1686 15.7002 16.408 15.5044C16.642 15.3131 16.941 15.3106 17.193 15.4701C17.4452 15.6297 17.6895 15.8009 17.9324 15.9741C18.1709 16.144 18.4083 16.3101 18.6282 16.5039C18.8397 16.6901 18.9125 16.9345 18.7934 17.1872C18.5754 17.6501 18.2581 18.0352 17.8006 18.281C17.6714 18.3503 17.517 18.3727 17.3714 18.4176C17.517 18.3727 17.2038 18.3667 17.3714 18.4176Z" fill="white"/>
<path id="Vector_4" d="M15.0042 9.69293C17.0145 9.7493 18.6657 11.0834 19.0196 13.0709C19.0799 13.4096 19.1013 13.7558 19.1281 14.0995C19.1395 14.2441 19.0575 14.3814 18.9016 14.3834C18.7404 14.3853 18.6679 14.2504 18.6574 14.106C18.6367 13.8199 18.6224 13.5325 18.5829 13.2489C18.3749 11.7513 17.1807 10.5124 15.6901 10.2465C15.4657 10.2065 15.2363 10.196 15.009 10.1722C14.8654 10.1571 14.6773 10.1484 14.6455 9.96985C14.6188 9.82014 14.7452 9.70096 14.8877 9.69329C14.9263 9.691 14.9653 9.69282 15.0042 9.69293C14.9653 9.69282 17.0146 9.7493 15.0042 9.69293Z" fill="white"/>
<path id="Vector_5" d="M18.0594 13.6533C18.0561 13.6784 18.0544 13.7374 18.0396 13.793C17.9863 13.9948 17.6802 14.02 17.6098 13.8164C17.5889 13.756 17.5858 13.6872 17.5857 13.6222C17.585 13.1964 17.4924 12.7711 17.2777 12.4006C17.057 12.0198 16.7197 11.6998 16.3243 11.506C16.0851 11.3889 15.8265 11.3161 15.5644 11.2728C15.4498 11.2538 15.334 11.2424 15.2189 11.2263C15.0794 11.2069 15.0048 11.1181 15.0115 10.9806C15.0177 10.8518 15.1118 10.7591 15.2522 10.7671C15.7135 10.7932 16.1592 10.8931 16.5694 11.1102C17.4034 11.5519 17.8799 12.2491 18.019 13.1801C18.0253 13.2223 18.0354 13.2641 18.0386 13.3064C18.0464 13.4108 18.0514 13.5154 18.0594 13.6533C18.0514 13.5154 18.0561 13.6783 18.0594 13.6533Z" fill="white"/>
<path id="Vector_6" d="M16.809 13.6047C16.6408 13.6077 16.5508 13.5146 16.5334 13.3605C16.5214 13.253 16.5118 13.144 16.4861 13.0394C16.4356 12.8333 16.3261 12.6424 16.1528 12.5161C16.071 12.4565 15.9783 12.4131 15.8812 12.385C15.7578 12.3493 15.6296 12.3592 15.5066 12.329C15.373 12.2963 15.299 12.188 15.3201 12.0627C15.3392 11.9485 15.4501 11.8595 15.5749 11.8686C16.3543 11.9248 16.9114 12.3278 16.9909 13.2453C16.9966 13.3101 17.0031 13.3785 16.9888 13.4405C16.964 13.5464 16.8855 13.5995 16.809 13.6047C16.8855 13.5995 16.6408 13.6077 16.809 13.6047Z" fill="white"/>
</g>
<path id="Vector_7" d="M17.3713 18.4176C17.517 18.3727 17.2037 18.3666 17.3713 18.4176V18.4176Z" fill="white"/>
<g id="Group_2">
<path id="Vector_8" d="M15.0094 9.69309C15.0077 9.69309 15.006 9.69292 15.0043 9.69292C15.0027 9.6928 15.0048 9.69292 15.0094 9.69309Z" fill="white"/>
<path id="Vector_9" d="M15.0045 9.69287C15.0062 9.69287 15.0078 9.69305 15.0095 9.69305C15.1211 9.69703 16.9356 9.74701 15.0045 9.69287Z" fill="white"/>
</g>
<g id="Group_3">
<path id="Vector_10" d="M18.0593 13.6535C18.0514 13.5156 18.056 13.6785 18.0593 13.6535V13.6535Z" fill="white"/>
<path id="Vector_11" d="M16.809 13.6048C16.8116 13.6047 16.8141 13.6033 16.8167 13.603C16.8096 13.603 16.7987 13.6032 16.7875 13.6036C16.7947 13.6038 16.8014 13.6049 16.809 13.6048Z" fill="white"/>
<path id="Vector_12" d="M16.8089 13.6047C16.8013 13.6049 16.7947 13.6038 16.7874 13.6035C16.751 13.6045 16.7135 13.6064 16.8089 13.6047Z" fill="white"/>
<path id="Vector_13" d="M16.8166 13.603C16.8139 13.6033 16.8114 13.6047 16.8089 13.6048C16.8286 13.6035 16.8269 13.603 16.8166 13.603Z" fill="white"/>
</g>
</g>
<defs>
<clipPath id="clip0_338_14934">
<rect width="30" height="30" fill="white"/>
</clipPath>
</defs>
</svg>
    </symbol>
</svg>
<!--+ Header logo  -->
<svg>
    <symbol id="header-logo" viewBox="0 0 250 50">
        <svg xmlns="http://www.w3.org/2000/svg" width="250" height="50" viewBox="0 0 250 50" fill="none">
    <path d="M98.5259 36.5282H94.8927V34.6588H104.038V36.5282H100.405V45.7507H98.4006V36.5282H98.5259ZM113.058 45.7507H106.419V34.6588H112.808V36.5282H108.298V39.27H112.307V41.1395H108.298V44.0059H112.933V45.7507H113.058ZM122.705 34.6588H124.96L121.202 40.0178L125.086 45.6261H122.83L119.949 41.5134L117.067 45.6261H114.812L118.696 40.0178L114.938 34.6588H117.193L119.949 38.6469L122.705 34.6588ZM136.486 45.7507H134.482V41.0148H129.47V45.7507H127.466V34.6588H129.47V39.1454H134.607V34.6588H136.486V45.7507ZM139.368 40.2671C139.368 38.6469 139.869 37.276 140.996 36.1543C142.124 35.0326 143.502 34.5341 145.131 34.5341C146.759 34.5341 148.137 35.0326 149.265 36.1543C150.392 37.276 150.893 38.6469 150.893 40.2671C150.893 41.8872 150.392 43.2582 149.265 44.3798C148.137 45.5015 146.759 46 145.131 46C143.502 46 142.124 45.5015 140.996 44.3798C139.869 43.2582 139.368 41.8872 139.368 40.2671ZM141.372 40.2671C141.372 41.3887 141.748 42.2611 142.374 43.0089C143.001 43.7567 144.003 44.1306 145.005 44.1306C146.133 44.1306 147.01 43.7567 147.761 43.0089C148.388 42.2611 148.764 41.3887 148.764 40.2671C148.764 39.1454 148.388 38.1484 147.636 37.5252C146.884 36.7774 146.007 36.4036 145.005 36.4036C143.878 36.4036 143.001 36.7774 142.374 37.5252C141.748 38.1484 141.372 39.1454 141.372 40.2671ZM161.918 45.7507H160.039V36.5282H156.782L156.531 38.6469C156.406 39.8932 156.281 41.0148 156.03 41.8872C155.779 42.7596 155.654 43.5074 155.404 44.0059C155.153 44.5045 154.902 45.003 154.527 45.2522C154.151 45.5015 153.9 45.7507 153.524 45.7507C153.149 45.8754 152.773 45.8754 152.272 45.7507V43.8813C152.522 43.8813 152.647 43.8813 152.898 43.8813C153.023 43.8813 153.274 43.632 153.399 43.3828C153.65 43.1335 153.775 42.7596 153.9 42.2611C154.276 41.1395 154.527 39.3947 154.777 36.9021L154.902 34.6588H161.918V45.7507ZM164.8 40.2671C164.8 38.6469 165.301 37.276 166.428 36.1543C167.556 35.0326 168.934 34.5341 170.563 34.5341C172.191 34.5341 173.569 35.0326 174.697 36.1543C175.824 37.276 176.326 38.6469 176.326 40.2671C176.326 41.8872 175.824 43.2582 174.697 44.3798C173.569 45.5015 172.191 46 170.563 46C168.934 46 167.556 45.5015 166.428 44.3798C165.301 43.2582 164.8 41.8872 164.8 40.2671ZM166.929 40.2671C166.929 41.3887 167.305 42.2611 167.932 43.0089C168.558 43.7567 169.56 44.1306 170.563 44.1306C171.69 44.1306 172.567 43.7567 173.319 43.0089C173.945 42.2611 174.321 41.3887 174.321 40.2671C174.321 39.1454 173.945 38.1484 173.194 37.5252C172.442 36.7774 171.565 36.4036 170.563 36.4036C169.435 36.4036 168.558 36.7774 167.932 37.5252C167.18 38.1484 166.929 39.1454 166.929 40.2671ZM181.212 45.7507H179.207V34.6588H185.471V36.5282H181.212V45.7507ZM190.107 45.7507H188.102V34.6588H190.107V45.7507ZM192.988 32.7893C192.988 32.5401 193.113 32.2908 193.239 32.0415C193.489 31.9169 193.74 31.7923 193.99 31.7923C194.241 31.7923 194.491 31.9169 194.742 32.0415C194.993 32.1662 194.993 32.4154 194.993 32.7893C194.993 33.1632 194.867 33.4125 194.742 33.5371C194.617 33.6617 194.366 33.7863 193.99 33.7863C193.74 33.7863 193.489 33.6617 193.239 33.5371C193.113 33.2878 192.988 33.0386 192.988 32.7893ZM196.245 45.7507H194.241V34.6588H196.245V45.7507ZM195.619 32.7893C195.619 32.5401 195.744 32.2908 195.869 32.0415C196.12 31.9169 196.371 31.7923 196.621 31.7923C196.872 31.7923 197.122 31.9169 197.373 32.0415C197.623 32.2908 197.623 32.4154 197.623 32.7893C197.623 33.1632 197.498 33.4125 197.373 33.5371C197.248 33.7863 196.997 33.7863 196.621 33.7863C196.245 33.7863 195.995 33.6617 195.869 33.5371C195.744 33.2878 195.619 33.0386 195.619 32.7893ZM211.905 43.2582L212.657 44.7537C212.281 45.1276 211.78 45.3769 211.154 45.6261C210.527 45.8754 209.776 46 209.149 46C207.395 46 206.017 45.5015 205.015 44.3798C204.013 43.3828 203.386 42.0119 203.386 40.2671C203.386 38.6469 203.887 37.276 204.89 36.1543C205.892 35.0326 207.27 34.5341 209.024 34.5341C210.402 34.5341 211.53 34.908 212.407 35.6558L211.53 37.1513C210.778 36.6528 209.901 36.4036 209.024 36.4036C208.022 36.4036 207.145 36.7774 206.393 37.4006C205.767 38.1484 205.391 39.0208 205.391 40.2671C205.391 41.3887 205.767 42.3858 206.393 43.1335C207.145 43.8813 208.022 44.2552 209.149 44.2552C210.277 44.1306 211.154 43.8813 211.905 43.2582ZM224.183 45.7507H222.304V41.0148H217.167V45.7507H215.163V34.6588H217.167V39.1454H222.304V34.6588H224.183V45.7507ZM235.083 34.6588H237.087L233.329 43.1335C232.953 44.0059 232.452 44.6291 232.076 45.1276C231.575 45.5015 231.074 45.7507 230.322 45.7507C229.57 45.7507 229.194 45.6261 228.818 45.2522L229.445 43.632C229.695 43.7567 229.946 43.8813 230.322 43.8813C230.823 43.8813 231.199 43.632 231.449 43.1335L231.575 42.7596L226.689 34.6588H228.944L232.577 40.8902L235.083 34.6588Z" fill="#535353"/>
    <path d="M92.6447 15.7151L103.419 28.8012H96.5285L87.884 17.9585V28.8012H82.4969V4.24926H87.884V14.2196L96.1526 4.24926H102.793L92.6447 15.7151ZM202.516 9.35906H210.033V28.8012H215.42V9.35906H222.937V4.24926H202.391V9.35906H202.516ZM118.954 18.9555L126.596 28.8012H120.081L113.692 20.0772H111.688V28.8012H106.3V4.24926H106.927C108.054 4.24926 109.307 4.24926 110.685 4.24926C112.063 4.24926 113.191 4.24926 114.068 4.24926C121.585 4.24926 123.213 8.48665 123.213 12.1009C123.213 13.9703 122.712 15.5905 121.71 16.8368C120.833 17.7092 119.956 18.457 118.954 18.9555ZM112.314 9.35906C112.063 9.35906 111.938 9.35906 111.688 9.35906V14.9674H113.692C114.82 14.9674 115.822 14.7181 116.573 14.095C117.2 13.5964 117.576 12.8487 117.576 11.9763C117.576 10.73 117.2 9.23443 113.817 9.23443C113.692 9.23443 113.567 9.23443 113.316 9.23443C113.066 9.35906 112.69 9.35906 112.314 9.35906ZM193.872 4.24926L204.27 28.8012H198.507L196.127 22.819H186.982L184.601 28.8012H179.089L189.362 4.24926H193.872ZM191.492 11.727L188.986 17.7092H193.997L191.492 11.727ZM249.497 16.5875C249.497 20.2018 248.244 23.3175 245.864 25.6855C243.483 28.0534 240.351 29.2997 236.718 29.2997C233.085 29.2997 229.953 28.178 227.573 25.8101C225.192 23.4421 223.94 20.451 223.94 16.7122C223.94 13.2226 225.192 10.1068 227.573 7.73888C229.953 5.37092 233.085 4.12463 236.718 4.12463C240.351 4.12463 243.483 5.2463 245.864 7.61425C248.244 9.73294 249.497 12.8487 249.497 16.5875ZM241.98 21.9466C243.358 20.451 243.985 18.7062 243.985 16.4629C243.985 14.2196 243.358 12.4748 241.855 10.9792C240.477 9.60831 238.723 8.86054 236.718 8.86054C234.588 8.86054 232.96 9.60831 231.582 10.9792C230.204 12.3502 229.577 14.2196 229.577 16.4629C229.577 18.7062 230.204 20.451 231.582 21.822C232.96 23.3175 234.588 23.9407 236.718 23.9407C238.973 24.0653 240.602 23.4421 241.98 21.9466ZM176.082 4.24926L169.818 20.451L163.303 4.24926H157.54L167.688 28.8012H171.697L181.594 4.24926H176.082Z" fill="#535353"/>
    <path d="M153.102 6.49432C151.595 4.99773 149.585 4.12472 147.45 4.12472C145.315 4.12472 143.306 4.99773 141.799 6.49432L141.422 6.86847L140.919 6.3696C139.412 4.87301 137.403 4 135.268 4C133.132 4 131.123 4.87301 129.616 6.3696C128.109 7.8662 127.229 9.86165 127.229 11.9818C127.229 14.102 128.109 16.0975 129.616 17.594L140.543 28.4443C140.794 28.6938 141.045 28.8185 141.422 28.8185C141.799 28.8185 142.05 28.6938 142.301 28.4443L153.228 17.594C154.735 16.0975 155.614 14.102 155.614 11.9818C155.614 9.86165 154.735 7.99091 153.102 6.49432Z" fill="#00B5FF"/>
    <mask id="mask0_10_3" style="mask-type:alpha" maskUnits="userSpaceOnUse" x="127" y="4" width="29" height="25">
      <path d="M153.102 6.49432C151.595 4.99773 149.585 4.12472 147.45 4.12472C145.315 4.12472 143.306 4.99773 141.799 6.49432L141.422 6.86847L140.919 6.3696C139.412 4.87301 137.403 4 135.268 4C133.132 4 131.123 4.87301 129.616 6.3696C128.109 7.8662 127.229 9.86165 127.229 11.9818C127.229 14.102 128.109 16.0975 129.616 17.594L140.543 28.4443C140.794 28.6938 141.045 28.8185 141.422 28.8185C141.799 28.8185 142.05 28.6938 142.301 28.4443L153.228 17.594C154.735 16.0975 155.614 14.102 155.614 11.9818C155.614 9.86165 154.735 7.99091 153.102 6.49432Z" fill="#00B5FF"/>
    </mask>
    <g mask="url(#mask0_10_3)">
      <rect x="126.293" y="14.3227" width="30.0675" height="15.0844" fill="#FFBC00"/>
    </g>
    <path d="M7.23477 18.4V44.8C7.23477 45.52 6.75246 46 6.02898 46H1.2058C0.482318 46 0 45.52 0 44.8V18.4C0 17.68 0.482318 17.2 1.2058 17.2H6.02898C6.75246 17.2 7.23477 17.8 7.23477 18.4ZM72.7942 17.2H67.971C67.2476 17.2 66.7652 17.68 66.7652 18.4V44.8C66.7652 45.52 67.2476 46 67.971 46H72.7942C73.5177 46 74 45.52 74 44.8V18.4C74 17.8 73.5177 17.2 72.7942 17.2Z" fill="#FFBC57"/>
    <path d="M64.3536 25.6V32.8C64.3536 33.52 63.8713 34 63.1479 34H10.8522C10.1287 34 9.64636 33.52 9.64636 32.8V25.6C9.64636 24.88 10.1287 24.4 10.8522 24.4H63.1479C63.8713 24.4 64.3536 24.88 64.3536 25.6ZM10.8522 22H25.0686C25.7921 22 26.2744 21.52 26.2744 20.8V5.2C26.2744 4.48 25.7921 4 25.0686 4H10.8522C10.1287 4 9.64636 4.48 9.64636 5.2V20.8C9.64636 21.52 10.1287 22 10.8522 22ZM29.8918 22H44.1082C44.8317 22 45.314 21.52 45.314 20.8V5.2C45.314 4.48 44.8317 4 44.1082 4H29.8918C29.1683 4 28.686 4.48 28.686 5.2V20.8C28.686 21.52 29.1683 22 29.8918 22ZM63.1479 4H48.9314C48.2079 4 47.7256 4.48 47.7256 5.2V20.8C47.7256 21.52 48.2079 22 48.9314 22H63.1479C63.8713 22 64.3536 21.52 64.3536 20.8V5.2C64.3536 4.48 63.8713 4 63.1479 4ZM63.1479 36.4H10.8522C10.1287 36.4 9.64636 36.88 9.64636 37.6V44.8C9.64636 45.52 10.1287 46 10.8522 46H17.8338C18.5573 46 19.0396 45.52 19.0396 44.8V43.6H54.9604V44.8C54.9604 45.52 55.4427 46 56.1662 46H63.1479C63.8713 46 64.3536 45.52 64.3536 44.8V37.6C64.3536 36.88 63.8713 36.4 63.1479 36.4Z" fill="#FFBC57"/>
  </svg>
    </symbol>
</svg>